<?xml version="1.0" encoding="utf-8" ?><svg xmlns="http://www.w3.org/2000/svg" xmlns:xlink="http://www.w3.org/1999/xlink" width="1024" height="1024" viewBox="0 0 1024 1024"><path fill="#3713EC" transform="scale(0.269758 0.269758)" d="M756.138 0L3039.86 0C3040.77 0.222116 3041.67 0.444233 3042.58 0.666349C3117.76 2.53475 3191.62 9.45489 3265.02 26.6549C3308.99 36.9579 3343.61 62.0072 3381.6 85.4232C3509.12 166.354 3619.83 274.979 3702.23 401.635C3710.78 414.786 3752.77 480.836 3758.24 495.223C3778.3 547.967 3787.11 627.429 3792.19 683.562C3793.31 695.96 3793.88 750.292 3796 756.138L3796 3039.86C3793.5 3050.31 3794.04 3065.45 3793.73 3076.66C3791.91 3140.97 3783.36 3204.21 3768.78 3266.85C3759.38 3307.24 3738.36 3337.2 3716.4 3372.27C3634.24 3504.9 3523.89 3617.81 3393.18 3702.98C3376.3 3714.17 3317.24 3751.73 3298.86 3758.68C3244.89 3779.11 3169.77 3786.92 3112.22 3791.95C3102.41 3792.8 3042.31 3795.17 3039.86 3796L756.138 3796C750.292 3793.88 695.96 3793.31 683.562 3792.19C627.429 3787.11 547.967 3778.3 495.223 3758.24C480.836 3752.77 414.786 3710.78 401.635 3702.23C274.979 3619.83 166.354 3509.12 85.4232 3381.6C62.0072 3343.61 36.9579 3308.99 26.6549 3265.02C9.45489 3191.62 2.53475 3117.76 0.666349 3042.58C0.444233 3041.67 0.222116 3040.77 0 3039.86L0 756.138C2.1216 750.292 2.69411 695.96 3.81476 683.562C8.88889 627.429 17.7042 547.967 37.7626 495.223C43.2343 480.836 85.2153 414.786 93.7715 401.635C176.174 274.979 286.875 166.354 414.404 85.4232C452.394 62.0072 487.006 36.9579 530.977 26.6549C604.384 9.45489 678.237 2.53475 753.425 0.666349C754.329 0.444233 755.234 0.222116 756.138 0Z"/><path fill="#FEFEFF" transform="scale(0.269758 0.269758)" d="M2158.24 1104.87C2163.33 1104.62 2168.43 1104.48 2173.53 1104.46C2252.28 1104.51 2289.63 1156.86 2340.9 1206.48C2381.58 1245.84 2421.49 1286.04 2461.97 1325.57C2528.96 1390.97 2604.77 1447.16 2670.45 1513.87C2703.87 1547.71 2726.74 1577.27 2726.38 1627.26C2726.1 1654.92 2710.6 1696.41 2692.15 1717.65C2667.1 1744.11 2643.09 1772.25 2617.48 1798.08C2569.44 1846.52 2522.74 1896.53 2474.56 1944.81C2310.82 2106.83 2145.65 2267.39 1979.06 2426.46C1801.49 2599.94 1625.87 2775.4 1452.25 2952.83C1379.04 3027.15 1309.06 3105.94 1232.59 3176.98C1204.31 3203.26 1175.25 3226 1134.5 3225.41C1124.63 3223.42 1114.02 3222.07 1104.44 3219C1060.88 3205.02 644.468 2788.77 591.204 2725.69C578.634 2710.81 569.852 2693.95 561.395 2676.51L1559.54 1674.11C1594.52 1638.6 1627.69 1602.39 1663.31 1567.05C1716.22 1511.18 1775.5 1458.75 1827.7 1402.44C1883.86 1341.88 1941.98 1284.6 2000.06 1225.89C2031.89 1193.73 2061.23 1160.28 2095.86 1130.79C2116.26 1113.42 2132.98 1110.64 2158.24 1104.87Z"/><path fill="#3713EC" transform="scale(0.269758 0.269758)" d="M1809.61 1829.23C1854.75 1836.35 1995.71 1965.8 2001.76 2002.84C1998.62 2023.84 1768.23 2237.59 1734.51 2271.83L1308.62 2701.13C1258.01 2751.36 1205.79 2806.13 1154.29 2854.85C1126.52 2853.9 1091.24 2824.39 1070.39 2807.27C1050.67 2791.07 960.113 2706.27 961.835 2684.35C968.148 2674.37 982.758 2659.43 991.282 2650.02C1020.91 2617.34 1052.96 2586.41 1084.22 2555.2L1311.09 2328.64C1407.72 2232.13 1505.03 2135.55 1600.87 2038.35C1654.76 1983.69 1705.22 1922.69 1761.86 1869.84C1774.99 1857.58 1794.61 1838.69 1809.61 1829.23Z"/><path fill="#3713EC" transform="scale(0.269758 0.269758)" d="M2189.7 1469.16C2206.56 1470.39 2233.86 1497.58 2244.99 1508.5C2264.11 1527.26 2345.38 1613.29 2342.03 1635.75C2338.51 1659.34 2258.87 1744.44 2235.41 1759.82C2220.74 1769.44 2215.34 1775.91 2198.36 1773.37C2152.2 1739.54 2106.87 1711.85 2069.85 1666.64C2058.94 1653.3 2039.64 1628.44 2042.24 1610.46C2045.88 1585.26 2164.09 1489.93 2189.7 1469.16Z"/><path fill="#FEFEFF" transform="scale(0.269758 0.269758)" d="M1469.01 571.865C1494.6 588.925 1529.19 623.311 1551.35 645.08C1579.16 672.113 1606.83 699.303 1634.34 726.649C1674.09 766.197 1759.16 843.31 1784.84 888.294C1684.27 998.13 1582.34 1092.91 1474.82 1194.37C1423.03 1180.92 1198.98 936.073 1157.86 883.211C1211.33 816.456 1278.25 761.756 1339.29 703.188C1383.81 660.471 1422.57 615.834 1469.01 571.865Z"/><path fill="#FEFEFF" transform="scale(0.269758 0.269758)" d="M2913.13 570.623C2965.7 603.761 3202.3 835.128 3234.19 887.59C3179.67 940.791 3126.81 996.22 3072.33 1049.52C3025.39 1095.18 2977.38 1139.71 2928.33 1183.08C2926.26 1184.82 2925.1 1185.84 2922.37 1186.43C2915.93 1187.81 2904.77 1179.3 2899.68 1175.44C2875.31 1156.93 2852.22 1136.29 2829.88 1115.4C2797.67 1085.26 2617.37 908.901 2615.14 873.51C2614.54 863.97 2659.14 819.651 2666.95 811.606C2700.64 776.88 2737.8 745.587 2772.39 711.784C2792.68 691.954 2813.17 672.054 2832.66 651.444C2845.55 637.815 2857.43 623.247 2870.66 609.929C2884.32 596.181 2899.23 584.051 2913.13 570.623Z"/><path fill="#FEFEFF" transform="scale(0.269758 0.269758)" d="M2920.06 2019.5C2960.5 2033.88 3198.15 2280.5 3227.95 2325.9C3198.93 2365.3 3147.2 2415.51 3112.69 2451.21C3051.22 2514.78 2986.28 2574.55 2923.11 2636.18C2921.5 2636.82 2920.68 2636.23 2918.38 2635.82C2841.98 2565.7 2768.32 2488.32 2697.35 2412.72C2681.53 2395.87 2625.63 2338.32 2616.65 2320.61C2626 2310.54 2633.13 2300.25 2643.68 2289.18C2697.7 2232.48 2756.64 2182.6 2810.73 2125.73C2824.02 2111.75 2908.54 2026.17 2920.06 2019.5Z"/></svg>