<?xml version="1.0" encoding="utf-8" ?><svg xmlns="http://www.w3.org/2000/svg" xmlns:xlink="http://www.w3.org/1999/xlink" width="500" height="500" viewBox="0 0 500 500"><path fill="#2E16C6" transform="scale(0.131718 0.131718)" d="M856.187 0L2939.81 0C2955.59 3.65333 2995 2.64967 3013.39 3.80087C3059.87 7.05269 3106.12 12.8897 3151.95 21.2849C3248.63 39.5127 3296.04 57.5784 3378.06 112.534C3498.43 192.387 3601.7 295.396 3681.85 415.558C3697.53 438.823 3725.97 480.865 3736.29 506.628C3768.84 587.941 3782.31 676.744 3790.66 763.4C3792.43 781.79 3792.34 843.804 3796 856.187L3796 2939.81C3792.35 2955.59 3793.35 2995 3792.2 3013.39C3788.95 3059.87 3783.11 3106.12 3774.72 3151.95C3756.49 3248.63 3738.42 3296.04 3683.47 3378.06C3603.61 3498.43 3500.6 3601.7 3380.44 3681.85C3357.18 3697.53 3315.14 3725.97 3289.37 3736.29C3208.06 3768.84 3119.26 3782.31 3032.6 3790.66C3014.21 3792.43 2952.2 3792.34 2939.81 3796L856.187 3796C843.804 3792.34 781.79 3792.43 763.4 3790.66C676.744 3782.31 587.941 3768.84 506.628 3736.29C480.865 3725.97 438.823 3697.53 415.558 3681.85C295.396 3601.7 192.387 3498.43 112.534 3378.06C57.5784 3296.04 39.5127 3248.63 21.2849 3151.95C12.8897 3106.12 7.05269 3059.87 3.80087 3013.39C2.64967 2995 3.65333 2955.59 0 2939.81L0 856.187C1.43076 851.364 4.03205 776.968 5.31873 763.257C13.4701 676.392 27.6359 584.201 61.5837 503.273C70.3222 482.441 100.801 435.36 113.835 415.997C194.996 294.24 299.856 190.083 422.156 109.744C501.216 57.3147 546.696 39.7191 640.804 21.8315C686.995 13.3074 733.62 7.33755 780.468 3.94909C799.415 2.65954 839.953 3.75925 856.187 0Z"/><path fill="#FEFEFF" transform="scale(0.131718 0.131718)" d="M2155.4 1105.17C2166.34 1102.9 2185.87 1104.56 2197.09 1106C2261.75 1114.13 2300.53 1166.31 2344.03 1208.24C2385.04 1247.77 2424.69 1289.22 2465.91 1328.29C2500.38 1360.89 2535.75 1392.52 2571.98 1423.15C2615.82 1460.73 2665.07 1501.15 2700.47 1546.98C2721.35 1574.02 2731.13 1610.17 2725.49 1643.96C2720.39 1669.63 2707.07 1702.35 2689.35 1721.73C2567.21 1855.35 2437.45 1982.72 2307.97 2108.92L1710.84 2691.35C1593.13 2809.49 1476.38 2928.59 1360.61 3048.63C1312.17 3097.97 1266.45 3150.38 1213.12 3194.91C1193.78 3211.07 1159.99 3229.38 1134.06 3225C1127.36 3224.26 1104.69 3221.01 1100.29 3217.96C1039.51 3175.86 965.412 3100.4 912.99 3049.8L711.822 2852.39C669.698 2810.26 627.376 2768.24 588.283 2723.13C576.851 2709.94 567.49 2691.87 561.281 2675.57C625.535 2600.38 699.689 2536.81 769.084 2466.77C781.806 2453.93 794.673 2441.2 807.458 2428.42L1320.06 1915.87L1822.67 1406.8L1989.22 1236.26C2019.56 1205.23 2047.4 1173.28 2079.98 1143.88C2107.94 1118.65 2118.11 1112.34 2155.4 1105.17Z"/><path fill="#2E16C6" transform="scale(0.131718 0.131718)" d="M1806.12 1830.92C1854.95 1825.29 1977.32 1962.75 2005.41 2001.13C1987.96 2022.93 1968.68 2042.7 1949.33 2062.74C1884.64 2129.74 1814.09 2191.02 1748.47 2256.99L1154.24 2853.52C1132.99 2857.43 1087.59 2821.29 1071.74 2807.97C1050.33 2789.97 966.13 2708.83 960.847 2686.8C994.952 2638.71 1066.21 2573.69 1109.82 2530.26L1375.11 2265.9C1451.89 2189.79 1528.14 2113.15 1603.85 2035.98C1673.52 1963.58 1729.57 1898.53 1806.12 1830.92Z"/><path fill="#2E16C6" transform="scale(0.131718 0.131718)" d="M2191.75 1469.11C2218.19 1477.04 2348.71 1609.07 2341.45 1636.93C2334.52 1663.57 2232.18 1782.18 2198.36 1772.16C2135.85 1731.19 2065.43 1682.96 2039.28 1609.87C2070.85 1567.9 2150.11 1500.69 2191.75 1469.11Z"/><path fill="#FEFEFF" transform="scale(0.131718 0.131718)" d="M1468.34 571.709C1486.25 578.383 1588.27 677.688 1608.54 700.18C1656.29 753.148 1752.06 830.304 1785.58 888.245C1744.79 933.127 1695.92 981.761 1653.15 1024.75C1596.42 1081.76 1534.41 1142.57 1473.79 1195.45C1421.8 1175.11 1193.06 937.235 1157.81 882.887C1188.84 833.739 1297.44 744.16 1341.16 700.416C1383.85 657.704 1423.72 612.213 1468.34 571.709Z"/><path fill="#FEFEFF" transform="scale(0.131718 0.131718)" d="M2912.26 570.252C2922.36 573.956 2950.38 599.194 2959.74 607.359C3012.88 654.211 3064.34 702.95 3114 753.482C3151.73 791.176 3204.13 844.277 3235.57 887.228C3134.26 984.133 3036.99 1092.25 2928.85 1183.05L2923.4 1186.88C2884.74 1187.43 2631.34 921.352 2614.36 877.512C2615.7 850.199 2757.02 726.693 2784.39 699.156C2825.09 658.201 2869.88 609.147 2912.26 570.252Z"/><path fill="#FEFEFF" transform="scale(0.131718 0.131718)" d="M2921.11 2018.75C2967.74 2040.51 3197.11 2277.57 3228.53 2325.97C3199.75 2365.76 3132.4 2432.84 3097.14 2467.76C3041.96 2522.4 2980.8 2584.35 2923.39 2636.22C2921.17 2637.49 2922.6 2637 2918.89 2636.66C2879.45 2603.03 2633.61 2356.4 2617.93 2322.32C2622.62 2312.09 2633.06 2299.42 2640.61 2291.45C2670.98 2259.39 2714.74 2217.29 2746.73 2188.8C2774.88 2163.75 2901.04 2028.78 2921.11 2018.75Z"/></svg>