<?xml version="1.0" standalone="no"?><!DOCTYPE svg PUBLIC "-//W3C//DTD SVG 1.1//EN" "http://www.w3.org/Graphics/SVG/1.1/DTD/svg11.dtd"><svg t="1768361064428" class="icon" viewBox="0 0 1024 1024" version="1.1" xmlns="http://www.w3.org/2000/svg" p-id="8963" xmlns:xlink="http://www.w3.org/1999/xlink" width="200" height="200"><path d="M947.2 290.133333C925.866667 213.333333 878.933333 153.6 810.666667 115.2c-68.266667-38.4-149.333333-42.666667-226.133334-17.066667-4.266667 0-12.8 4.266667-17.066666 8.533334-4.266667 4.266667-12.8 4.266667-17.066667 8.533333h-4.266667c-38.4 21.333333-64 51.2-85.333333 81.066667-17.066667 21.333333-25.6 46.933333-38.4 68.266666 0 8.533333-4.266667 21.333333-8.533333 29.866667-8.533333 17.066667-21.333333 34.133333-29.866667 46.933333-17.066667 17.066667-29.866667 25.6-42.666667 34.133334h-4.266666c-21.333333 12.8-42.666667 21.333333-68.266667 25.6-17.066667 8.533333-25.6 12.8-38.4 17.066666h-4.266667c-110.933333 38.4-170.666667 123.733333-170.666666 243.2 0 64 29.866667 123.733333 85.333333 170.666667 68.266667 59.733333 166.4 98.133333 264.533333 98.133333 17.066667 0 29.866667 0 46.933334-4.266666 140.8-17.066667 264.533333-85.333333 362.666666-204.8 46.933333-55.466667 179.2-264.533333 132.266667-430.933334z m-460.8 238.933334c-25.6 21.333333-59.733333 34.133333-93.866667 34.133333-46.933333 0-102.4-21.333333-153.6-81.066667h4.266667c12.8-8.533333 25.6-12.8 38.4-12.8 8.533333-4.266667 17.066667-4.266667 25.6-8.533333 51.2 46.933333 106.666667 42.666667 136.533333 17.066667 38.4-29.866667 55.466667-89.6 25.6-153.6 4.266667-8.533333 12.8-21.333333 17.066667-29.866667 4.266667-12.8 12.8-25.6 17.066667-38.4 76.8 106.666667 51.2 217.6-17.066667 273.066667z" fill="#fbbd23" p-id="8964"></path></svg>